<svg width="40" height="36" viewBox="0 0 40 36" fill="none" xmlns="http://www.w3.org/2000/svg">
<path fill-rule="evenodd" clip-rule="evenodd" d="M0.94253 1.31846C0.94253 0.643841 1.65248 0.205069 2.25588 0.506768L18.5909 8.67427C18.8983 8.82799 19.0925 9.14222 19.0925 9.48596V34.6817C19.0925 35.3563 18.3826 35.7951 17.7792 35.4934L8.70402 30.9558C8.39658 30.8021 8.20237 30.4879 8.20237 30.1441V17.6536C8.20237 17.3099 8.00816 16.9956 7.70072 16.8419L1.44418 13.7136C1.13674 13.5599 0.94253 13.2457 0.94253 12.9019V1.31846Z" fill="black"/>
<path fill-rule="evenodd" clip-rule="evenodd" d="M39.0575 1.31846C39.0575 0.643841 38.3475 0.205069 37.7441 0.506768L21.4091 8.67427C21.1017 8.82799 20.9075 9.14222 20.9075 9.48596V34.6817C20.9075 35.3563 21.6174 35.7951 22.2208 35.4934L31.296 30.9558C31.6034 30.8021 31.7976 30.4879 31.7976 30.1441V17.6536C31.7976 17.3099 31.9918 16.9956 32.2993 16.8419L38.5558 13.7136C38.8633 13.5599 39.0575 13.2457 39.0575 12.9019V1.31846Z" fill="black"/>
</svg>
