<svg width="39" height="36" viewBox="0 0 39 36" fill="none" xmlns="http://www.w3.org/2000/svg">
<path fill-rule="evenodd" clip-rule="evenodd" d="M-9.72748e-05 0.908792C-9.72748e-05 0.234173 0.709854 -0.204598 1.31325 0.0971004L17.6482 8.2646C17.9557 8.41832 18.1499 8.73256 18.1499 9.07629V34.2721C18.1499 34.9467 17.44 35.3855 16.8366 35.0838L7.7614 30.5462C7.45395 30.3925 7.25974 30.0782 7.25974 29.7345V17.2439C7.25974 16.9002 7.06553 16.586 6.75809 16.4322L0.501556 13.304C0.194109 13.1502 -9.72748e-05 12.836 -9.72748e-05 12.4923V0.908792Z" fill="black"/>
<path fill-rule="evenodd" clip-rule="evenodd" d="M38.1148 0.908792C38.1148 0.234173 37.4049 -0.204598 36.8015 0.0971004L20.4665 8.2646C20.1591 8.41832 19.9648 8.73256 19.9648 9.07629V34.2721C19.9648 34.9467 20.6748 35.3855 21.2782 35.0838L30.3534 30.5462C30.6608 30.3925 30.855 30.0782 30.855 29.7345V17.2439C30.855 16.9002 31.0492 16.586 31.3567 16.4322L37.6132 13.304C37.9206 13.1502 38.1148 12.836 38.1148 12.4923V0.908792Z" fill="black"/>
</svg>
